# xmcd CD database file
#
# Track frame offsets:
#	150
#	15107
#	27087
#	40280
#	57715
#	72770
#	88417
#	102247
#	117877
#	136665
#	152942
#	172197
#	188632
#	202965
#	220285
#	237570
#	253717
#	271405
#	287922
#	307400
#	323982
#	341397
#
# Disc length: 4787 seconds
#
# Revision: 4
# Processed by: cddbd v1.5.2PL0 Copyright (c) Steve Scherf et al.
# Submitted via: CDex 1.51
#
DISCID=4d12b116
DTITLE=Kenny Rogers - Anthology
DYEAR=1990
DGENRE=Country
TTITLE0=Just Dropped In
TTITLE1=But You Know I Love You
TTITLE2=Ruby (Don´t Take Your Love To Town)
TTITLE3=Something´s Burning
TTITLE4=Tell It All Brother
TTITLE5=Lucille
TTITLE6=Day Time Friends, Night Time Lovers
TTITLE7=The Gambler
TTITLE8=She Believes In Me
TTITLE9=You Decorated My Life
TTITLE10=Coward Of The Country
TTITLE11=Don´t Fall In Love With A Dreamer
TTITLE12=Love The World Away
TTITLE13=Lady
TTITLE14=We´ve Got Tonight
TTITLE15=Buried Treasure
TTITLE16=This Woman
TTITLE17=Eyes That See In The Dark
TTITLE18=What About Me?
TTITLE19=Crazy
TTITLE20=Tomb Of The Unknown Love
TTITLE21=Make No Mistake, She´s Mine
EXTD=YEAR: 1990
EXTT0=
EXTT1=
EXTT2=
EXTT3=
EXTT4=
EXTT5=
EXTT6=
EXTT7=
EXTT8=
EXTT9=
EXTT10=
EXTT11=
EXTT12=
EXTT13=
EXTT14=
EXTT15=
EXTT16=
EXTT17=
EXTT18=
EXTT19=
EXTT20=
EXTT21=
PLAYORDER=
